<?xml version="1.0" encoding="utf-8"?>
<!-- Generator: Adobe Illustrator 16.0.4, SVG Export Plug-In . SVG Version: 6.00 Build 0)  -->
<!DOCTYPE svg PUBLIC "-//W3C//DTD SVG 1.1//EN" "http://www.w3.org/Graphics/SVG/1.1/DTD/svg11.dtd">
<svg version="1.1" id="Layer_1" xmlns="http://www.w3.org/2000/svg" xmlns:xlink="http://www.w3.org/1999/xlink" x="0px" y="0px"
	 width="272px" height="272px" viewBox="0 0 272 272" enable-background="new 0 0 272 272" xml:space="preserve">
<circle opacity="0.5" fill="#FFFFFF" cx="136" cy="136" r="121.997"/>
<g opacity="0.3">
	<path d="M177.143,79.47c0,0-11,0-13.5,0c0,0-6.25-2-8.25,5.25c0,0-1.25,4.25-2.75,5.75c0,0-5.375,17.875,5.75,29
		c0,0,8.25,1,10.25,3c0,0-0.25,4,11.5,4c0,0,4.25-2.75,11.75,15.25c0,0,0.25,7.75-3.75,16c0,0,2,1.25,0,3.25c0,0-1.75,0.5-1.75,1.75
		c0,0-2.25,2.75,0,5c0,0-4.25,3.75-4.25,7.75c0,0-2.5,2.75-1.25,5c0,0-29.25,20-16.5,49c0,0,15.75,30,36-3c0,0,2.5-5.75,2.5-31
		c0,0,0.25-12.5,2.25-14.5c0,0,3.25-4.25,3.25-15.75c0,0,4-4.5,4-18c0,0,18-17,12.25-34.5s-9.5-12.5-12-15
		c0,0-10.25-7.25-10.25-10.25c0,0-3.5-12.25-19.75-11C182.643,76.47,177.143,77.47,177.143,79.47z"/>
	<path d="M166.143,68.97c0,0-12.5,4.5-12.5-4.75c0,0-1.75-11.5,10-18.5c0,0,12,0.845,10.5,12.172c0,0-3.914,0.742,0,2.328
		C174.143,60.22,178.893,63.97,166.143,68.97z"/>
	<path d="M164.279,71.47c0,0,0.863,1.25-1.137,3.25c0,0-3.709,3.208-6.334,0.583c0,0-2.5-3.833,2-3.833
		C158.809,71.47,163.639,70.83,164.279,71.47z"/>
	<path d="M179.809,63.219c0,0-6.916-13.25,3.334-16c0,0,0.832,0.583,1.416,0c0,0,4.25-2.667,5.418,6.583c0,0,0.332,2.75-4,7.083
		c0,0-1.668,5.833,0,2.75c0,0,3.166-8.416,9.291-9.292c0,0,8.293,0.958,6.459,9.542c0,0-0.369,1.299,0.648,0.649
		c0,0,4.768-1.399,9.852,7.517c0,0,2.082,9.667-7.25,9.667c0,0-5.75-1.5-6.5-9.25c0,0,1.291-3.458,2.416-4.583
		c0,0,1.25-2.417-0.582-0.583c0,0-3.5,4.917-5.834,5.833c0,0-6.332,1-8.082-3.917c0,0-0.5-1.5-1,0c0,0,0.166,4.667-3.668,2.333
		C181.725,71.553,177.475,69.552,179.809,63.219z"/>
	<path d="M208.393,83.886c0,0-6-1-3.584,3.5c0,0,1,2.333,3.918,2.333c0,0,5.207,7.042,8.416,3.833c0,0,4.168-3.273,0.918-9.762
		c0,0-3.104-5.572-5.635-1.405C212.424,82.386,210.393,84.552,208.393,83.886z"/>
	<path d="M118.476,90.388c0,0-2.667-13.005-12.667-8.669c0,0-5.833,2.836-11.667-2.998c0,0-11-7-28,17.333c0,0-27.667,22,0,46.666
		c0,0,2.167,7.502,4,9.334c0,0-2.166,16.834,10.333,29.334c0,0-1,3,2,6c0,0-15,42.666,10,49.666c0,0,31.666,10.002,23.333-27.666
		c0,0-8.666-19.332-19.333-19.332c0,0-17.667-11.002-14.667-23.002c0,0,2.167-1.5,0.667-5.334c0,0,4.75-5.248-3.167-8.166
		c0,0-4-2.334-0.167-6.166c0,0,3-3.334,1.333-15.667c0,0,9.5-27.333,26.333-18.167c0,0,4.501,1.5,3.834-3.833
		C110.643,109.72,118.476,108.722,118.476,90.388z"/>
	<path d="M93.143,64.123c3.799-1.846-0.156-2.323-0.156-2.323c-2.259-11.2,9.657-12.85,9.657-12.85
		c12.194,6.193,11.222,17.785,11.222,17.785c0.622,9.229-12.152,5.58-12.152,5.58C88.656,68.184,93.143,64.123,93.143,64.123z"/>
	<path d="M109.198,74.316c4.49-0.303,2.253,3.69,2.253,3.69c-2.443,2.795-6.358-0.156-6.358-0.156
		c-2.13-1.861-1.354-3.166-1.354-3.166C104.335,74.002,109.198,74.316,109.198,74.316z"/>
	<path d="M86.337,75.938c-3.668,2.586-3.815-2.081-3.815-2.081c-0.6-1.463-0.998,0.067-0.998,0.067
		c-1.416,5.023-7.801,4.452-7.801,4.452c-2.39-0.757-6.212-5.428-6.212-5.428c-1.952-1.706-0.542,0.621-0.542,0.621
		c1.198,1.047,2.72,4.41,2.72,4.41c-0.227,7.783-5.863,9.666-5.863,9.666c-9.312,0.628-7.884-9.157-7.884-9.157
		c4.472-9.238,9.322-8.163,9.322-8.163c1.059,0.58,0.604-0.691,0.604-0.691c-2.407-8.441,5.802-9.955,5.802-9.955
		c6.17,0.462,9.896,8.646,9.896,8.646c1.87,2.964-0.185-2.744-0.185-2.744c-4.615-4.032-4.467-6.798-4.467-6.798
		c0.542-9.308,4.962-6.933,4.962-6.933c0.622,0.542,1.414-0.095,1.414-0.095C93.7,53.811,87.69,67.496,87.69,67.496
		C90.445,73.658,86.339,75.94,86.337,75.938z"/>
	<path d="M56.437,88.813c-2.807-3.987-5.527,1.78-5.527,1.78c-2.806,6.693,1.571,9.679,1.571,9.679
		c3.417,2.986,8.14-4.391,8.14-4.391c2.911-0.196,3.751-2.591,3.751-2.591c2.109-4.652-3.811-3.251-3.811-3.251
		C58.611,90.838,56.438,88.813,56.437,88.813z"/>
</g>
<image overflow="visible" opacity="0.3" enable-background="new    " width="1050" height="1200" xlink:href="../../../../../../../Documents/GD Sem.3/Design for Interactive 2/week-4/1356609-foot-steps-over-white-background-isolated-rasterized-vector-illustration.jpg"  transform="matrix(0.187 0 0 0.187 -350.8262 -79.5601)">
</image>
<text transform="matrix(1 0 0 1 44.1572 132.0381)" font-family="'EmmascriptMVBStd'" font-size="54.9561">Barefoot</text>
<text transform="matrix(1 0 0 1 43.5176 180.1484)" font-family="'BermudaLPStd-Dots'" font-size="54.9561">POOL</text>
<g>
	<path d="M257.997,135.831c0,0-0.019,0.748-0.052,2.198c-0.063,1.449-0.008,3.604-0.271,6.402
		c-0.354,5.592-1.251,13.838-4.051,23.95c-0.357,1.263-0.729,2.556-1.104,3.884c-0.439,1.309-0.893,2.647-1.354,4.021
		c-0.435,1.383-0.998,2.754-1.55,4.164c-0.562,1.405-1.086,2.864-1.766,4.293c-2.49,5.809-5.686,11.883-9.674,18.008
		c-7.941,12.24-19.246,24.7-34.158,34.885c-7.465,5.056-15.808,9.509-24.889,13.027c-9.072,3.54-18.934,5.959-29.218,7.248
		c-1.281,0.2-2.58,0.28-3.88,0.396c-1.303,0.104-2.607,0.211-3.916,0.316c-1.312,0.043-2.631,0.087-3.953,0.13l-1.986,0.063
		c-0.711,0.008-1.331-0.019-2.003-0.023c-1.32-0.021-2.645-0.047-3.973-0.068c-1.331-0.039-2.685-0.168-4.033-0.248
		c-2.711-0.127-5.391-0.518-8.102-0.826c-5.39-0.807-10.828-1.816-16.18-3.379c-2.705-0.682-5.337-1.646-8.016-2.506
		c-1.322-0.479-2.631-1.007-3.952-1.509l-1.979-0.766l-1.945-0.861c-10.429-4.501-20.375-10.604-29.418-18.045
		c-4.542-3.702-8.74-7.86-12.756-12.214c-3.993-4.385-7.615-9.129-10.992-14.064c-3.358-4.955-6.28-10.224-8.924-15.64
		c-2.615-5.438-4.723-11.122-6.539-16.899c-1.792-5.795-3.044-11.752-4-17.754c-0.896-6.018-1.282-12.101-1.368-18.185
		c-0.005-24.352,7.382-48.653,20.823-68.481c3.377-4.938,7-9.684,10.993-14.066c4.016-4.354,8.217-8.508,12.754-12.218
		c9.045-7.44,18.992-13.545,29.422-18.046l1.945-0.861l1.98-0.766c1.321-0.502,2.63-1.029,3.953-1.507
		c2.679-0.862,5.312-1.825,8.017-2.506c5.353-1.561,10.791-2.573,16.182-3.377c2.71-0.311,5.396-0.701,8.091-0.825
		c1.345-0.081,2.684-0.209,4.022-0.249c1.339-0.023,2.674-0.047,4.006-0.07c0.676-0.007,1.306-0.033,2.017-0.025l1.971,0.065
		c1.312,0.043,2.618,0.086,3.922,0.129c1.313,0.106,2.625,0.212,3.93,0.318c1.307,0.113,2.61,0.194,3.892,0.395
		c10.285,1.29,20.146,3.709,29.22,7.25c9.081,3.521,17.426,7.974,24.889,13.029c14.914,10.186,26.215,22.649,34.158,34.889
		c3.986,6.125,7.184,12.2,9.672,18.009c0.68,1.427,1.201,2.887,1.766,4.293c0.552,1.411,1.115,2.782,1.55,4.165
		c0.462,1.373,0.913,2.713,1.354,4.021c0.377,1.328,0.744,2.622,1.104,3.883c2.801,10.114,3.695,18.359,4.051,23.952
		c0.264,2.796,0.206,4.954,0.271,6.403C257.979,135.083,257.997,135.831,257.997,135.831z M257.997,135.831
		c0,0-0.021-0.748-0.06-2.198c-0.067-1.448-0.02-3.605-0.289-6.401c-0.373-5.589-1.295-13.829-4.125-23.925
		c-2.803-10.065-7.5-22.076-15.615-34.219c-8.041-12.119-19.385-24.482-34.381-34.328c-7.486-4.902-15.824-9.184-24.858-12.527
		c-9.028-3.362-18.802-5.596-28.954-6.709c-1.267-0.179-2.542-0.237-3.818-0.328c-1.277-0.084-2.562-0.168-3.848-0.253
		c-1.305-0.023-2.611-0.046-3.924-0.069l-1.972-0.034c-0.604,0.004-1.292,0.039-1.937,0.056c-1.309,0.043-2.621,0.087-3.938,0.13
		c-1.315,0.059-2.629,0.207-3.95,0.306c-2.646,0.162-5.278,0.588-7.931,0.933c-5.278,0.873-10.593,1.945-15.81,3.557
		c-2.637,0.707-5.2,1.692-7.806,2.574c-1.287,0.489-2.559,1.024-3.842,1.535l-1.923,0.777l-1.888,0.872
		c-20.226,9.122-38.476,24.378-51.244,43.806c-3.217,4.837-5.995,9.976-8.517,15.242c-2.515,5.277-4.539,10.791-6.281,16.392
		c-1.718,5.616-2.909,11.388-3.818,17.201l-0.549,4.381c-0.207,1.462-0.243,2.915-0.374,4.372c-0.29,2.853-0.244,5.981-0.35,8.857
		c0.067,5.892,0.42,11.782,1.27,17.61c0.909,5.812,2.101,11.586,3.818,17.201c3.401,11.235,8.424,21.926,14.793,31.639
		c12.771,19.428,31.015,34.693,51.247,43.812l1.888,0.872l1.924,0.777c1.284,0.511,2.556,1.047,3.843,1.535
		c2.606,0.882,5.169,1.867,7.807,2.572c5.218,1.611,10.533,2.686,15.812,3.559c2.653,0.345,5.291,0.771,7.92,0.932
		c1.317,0.1,2.617,0.247,3.94,0.307c1.328,0.043,2.651,0.088,3.971,0.131c0.647,0.019,1.345,0.055,1.95,0.058l1.955-0.035
		c1.303-0.021,2.6-0.045,3.893-0.065c1.291-0.086,2.578-0.17,3.861-0.254c1.282-0.092,2.564-0.149,3.829-0.33
		c10.153-1.112,19.927-3.35,28.955-6.711c9.035-3.344,17.373-7.625,24.86-12.528c14.994-9.847,26.337-22.214,34.379-34.332
		c4.021-6.075,7.301-12.095,9.796-17.894c0.685-1.426,1.21-2.879,1.776-4.283c0.557-1.406,1.125-2.773,1.562-4.154
		c0.468-1.369,0.921-2.707,1.364-4.014c0.382-1.324,0.753-2.616,1.113-3.875c2.83-10.098,3.752-18.336,4.125-23.926
		c0.271-2.797,0.223-4.953,0.289-6.4C257.977,136.579,257.997,135.831,257.997,135.831z"/>
</g>
<g>
	<path d="M267.5,135.833c0,0-0.02,0.808-0.057,2.369c-0.068,1.562-0.008,3.887-0.291,6.901c-0.385,6.026-1.352,14.914-4.369,25.813
		c-0.387,1.358-0.783,2.754-1.19,4.187c-0.475,1.41-0.961,2.854-1.459,4.334c-0.467,1.489-1.075,2.969-1.671,4.487
		c-0.607,1.517-1.17,3.091-1.902,4.627c-2.686,6.263-6.131,12.808-10.432,19.405c-8.564,13.188-20.75,26.615-36.828,37.58
		c-8.046,5.441-17.037,10.232-26.824,14.021c-9.776,3.809-20.401,6.408-31.48,7.791c-1.383,0.215-2.78,0.301-4.182,0.422
		c-1.4,0.112-2.809,0.228-4.219,0.34c-1.416,0.047-2.834,0.094-4.259,0.14l-2.14,0.067c-0.762,0.008-1.434-0.021-2.158-0.027
		c-1.422-0.023-2.85-0.053-4.281-0.077c-1.434-0.043-2.891-0.183-4.343-0.271c-2.92-0.137-5.807-0.559-8.726-0.896
		c-5.806-0.868-11.662-1.963-17.425-3.646c-2.913-0.735-5.748-1.774-8.632-2.705c-1.424-0.516-2.833-1.084-4.256-1.625l-2.132-0.826
		l-2.094-0.928c-11.229-4.854-21.937-11.436-31.67-19.451c-1.199-1.023-2.4-2.049-3.603-3.076c-1.186-1.046-2.311-2.163-3.472-3.244
		l-1.725-1.643l-1.653-1.719c-1.088-1.16-2.24-2.267-3.279-3.477c-4.298-4.721-8.196-9.832-11.831-15.148
		c-3.614-5.336-6.758-11.01-9.604-16.842c-2.814-5.854-5.083-11.976-7.038-18.195c-1.928-6.238-3.276-12.652-4.304-19.113
		c-0.964-6.479-1.379-13.027-1.471-19.578l0.126-4.891c0.01-1.6,0.147-3.25,0.279-4.896c0.15-1.639,0.203-3.303,0.436-4.92
		l0.626-4.871c1.028-6.461,2.376-12.875,4.304-19.114c1.954-6.223,4.225-12.343,7.037-18.199c2.837-5.836,5.987-11.506,9.6-16.844
		c3.635-5.317,7.533-10.429,11.832-15.149c4.322-4.69,8.846-9.164,13.729-13.162c9.735-8.018,20.444-14.598,31.674-19.451
		l2.094-0.929l2.132-0.826c1.422-0.542,2.832-1.11,4.256-1.626c2.885-0.929,5.72-1.969,8.633-2.704
		c5.764-1.685,11.621-2.778,17.427-3.647c2.919-0.336,5.812-0.758,8.715-0.894c1.449-0.087,2.891-0.227,4.333-0.27
		c1.443-0.026,2.881-0.053,4.315-0.079c0.727-0.008,1.408-0.036,2.17-0.028l2.125,0.069c1.413,0.046,2.822,0.092,4.228,0.138
		c1.416,0.114,2.826,0.227,4.231,0.34c1.405,0.122,2.812,0.208,4.19,0.423c11.08,1.383,21.705,3.984,31.484,7.793
		c9.784,3.789,18.777,8.581,26.822,14.024c16.078,10.965,28.264,24.396,36.827,37.583c4.299,6.6,7.746,13.146,10.431,19.406
		c0.731,1.539,1.297,3.111,1.901,4.627c0.597,1.521,1.204,2.998,1.671,4.489c0.498,1.479,0.984,2.924,1.46,4.334
		c0.406,1.431,0.806,2.826,1.188,4.185c3.021,10.901,3.986,19.788,4.369,25.815c0.283,3.015,0.224,5.34,0.291,6.902
		C267.48,135.026,267.5,135.833,267.5,135.833z M267.5,135.833c0,0-0.021-0.807-0.062-2.369c-0.072-1.562-0.021-3.887-0.312-6.9
		c-0.399-6.025-1.396-14.906-4.44-25.79c-0.393-1.356-0.791-2.749-1.201-4.178c-0.479-1.407-0.969-2.849-1.471-4.326
		c-0.473-1.488-1.086-2.962-1.685-4.479c-0.611-1.512-1.179-3.082-1.915-4.616c-2.689-6.25-6.223-12.74-10.557-19.291
		c-8.664-13.067-20.891-26.397-37.049-37.023c-8.07-5.29-17.058-9.912-26.797-13.522c-9.732-3.631-20.271-6.046-31.219-7.253
		c-1.366-0.194-2.742-0.257-4.12-0.356c-1.379-0.091-2.762-0.183-4.149-0.275c-1.403-0.025-2.813-0.051-4.229-0.076L136.17,5.34
		c-0.655,0.004-1.395,0.041-2.09,0.06c-1.412,0.046-2.827,0.092-4.247,0.138c-1.418,0.063-2.836,0.222-4.26,0.328
		c-2.853,0.173-5.692,0.631-8.555,1.002c-5.693,0.938-11.426,2.092-17.055,3.827c-2.845,0.76-5.61,1.822-8.422,2.771
		c-1.388,0.526-2.76,1.103-4.146,1.653l-2.076,0.837l-2.037,0.939c-21.826,9.827-41.526,26.278-55.31,47.237
		c-3.473,5.219-6.473,10.762-9.196,16.445c-2.714,5.694-4.899,11.644-6.779,17.688c-1.854,6.06-3.141,12.289-4.123,18.562
		l-0.593,4.728c-0.224,1.578-0.263,3.146-0.404,4.72c-0.312,3.085-0.264,6.446-0.378,9.556c0.073,6.358,0.455,12.716,1.373,19.005
		c0.981,6.271,2.268,12.502,4.123,18.562c1.88,6.045,4.067,11.994,6.778,17.688c2.715,5.688,5.721,11.229,9.193,16.447
		c13.786,20.96,33.48,37.42,55.312,47.241l2.038,0.939l2.076,0.838c1.385,0.551,2.758,1.127,4.146,1.652
		c2.812,0.949,5.578,2.012,8.423,2.771c5.629,1.733,11.363,2.889,17.057,3.825c2.861,0.37,5.707,0.828,8.544,1
		c1.421,0.106,2.824,0.267,4.25,0.328c1.431,0.047,2.858,0.095,4.28,0.14c0.699,0.02,1.448,0.058,2.104,0.06l2.109-0.038
		c1.403-0.025,2.805-0.051,4.198-0.075c1.394-0.093,2.78-0.185,4.163-0.276c1.383-0.1,2.768-0.162,4.13-0.355
		c10.948-1.207,21.487-3.623,31.222-7.255c9.738-3.61,18.728-8.231,26.797-13.522c16.16-10.627,28.383-23.962,37.047-37.025
		c4.336-6.553,7.865-13.043,10.556-19.293c0.735-1.534,1.304-3.104,1.914-4.615c0.599-1.518,1.212-2.991,1.683-4.479
		c0.502-1.479,0.992-2.92,1.471-4.326c0.412-1.43,0.812-2.821,1.201-4.178c3.051-10.886,4.043-19.767,4.442-25.789
		c0.293-3.016,0.238-5.341,0.312-6.9C267.479,136.641,267.5,135.833,267.5,135.833z"/>
</g>
</svg>
